HIERARCHY
ROOT mixamorig:Hips
{
	OFFSET 0.000000 102.625267 -0.521241
	CHANNELS 6 Xposition Yposition Zposition Xrotation Yrotation Zrotation
	JOINT mixamorig:Spine
	{
		OFFSET 0.000000 5.645721 -0.031929
		CHANNELS 3 Xrotation Yrotation Zrotation
		JOINT mixamorig:Spine1
		{
			OFFSET 0.000000 6.586685 -0.037251
			CHANNELS 3 Xrotation Yrotation Zrotation
			JOINT mixamorig:Spine2
			{
				OFFSET 0.000000 7.527618 -0.042572
				CHANNELS 3 Xrotation Yrotation Zrotation
				JOINT mixamorig:Neck
				{
					OFFSET 0.000000 8.468590 -0.047894
					CHANNELS 3 Xrotation Yrotation Zrotation
					JOINT mixamorig:Head
					{
						OFFSET 0.000000 5.998901 -1.158958
						CHANNELS 3 Xrotation Yrotation Zrotation
						JOINT mixamorig:HeadTop_End
						{
							OFFSET 0.000000 21.748810 -4.201760
							CHANNELS 3 Xrotation Yrotation Zrotation
							End Site
							{
								OFFSET 0.000000 22.150970 0.000000
							}
						}
					}
				}
				JOINT mixamorig:LeftShoulder
				{
					OFFSET 3.414614 7.343132 -0.058928
					CHANNELS 3 Xrotation Yrotation Zrotation
					JOINT mixamorig:LeftArm
					{
						OFFSET 6.829548 -2.246910 -0.022071
						CHANNELS 3 Xrotation Yrotation Zrotation
						JOINT mixamorig:LeftForeArm
						{
							OFFSET 24.198503 -0.424179 0.257802
							CHANNELS 3 Xrotation Yrotation Zrotation
							JOINT mixamorig:LeftHand
							{
								OFFSET 21.584717 -0.002335 0.669575
								CHANNELS 3 Xrotation Yrotation Zrotation
								JOINT mixamorig:LeftHandThumb1
								{
									OFFSET 2.193897 -1.259628 1.956942
									CHANNELS 3 Xrotation Yrotation Zrotation
									JOINT mixamorig:LeftHandThumb2
									{
										OFFSET 1.755203 -1.007660 1.565605
										CHANNELS 3 Xrotation Yrotation Zrotation
										JOINT mixamorig:LeftHandThumb3
										{
											OFFSET 2.535126 -0.998764 1.490660
											CHANNELS 3 Xrotation Yrotation Zrotation
											JOINT mixamorig:LeftHandThumb4
											{
												OFFSET 2.398251 -0.721657 1.023775
												CHANNELS 3 Xrotation Yrotation Zrotation
												End Site
												{
													OFFSET 2.205696 -0.773872 1.362551
												}
											}
										}
									}
								}
								JOINT mixamorig:LeftHandIndex1
								{
									OFFSET 7.166248 -0.069405 2.369028
									CHANNELS 3 Xrotation Yrotation Zrotation
									JOINT mixamorig:LeftHandIndex2
									{
										OFFSET 2.989986 -0.015724 0.245918
										CHANNELS 3 Xrotation Yrotation Zrotation
										JOINT mixamorig:LeftHandIndex3
										{
											OFFSET 2.739197 -0.058952 0.219132
											CHANNELS 3 Xrotation Yrotation Zrotation
											JOINT mixamorig:LeftHandIndex4
											{
												OFFSET 2.326500 -0.032570 0.188458
												CHANNELS 3 Xrotation Yrotation Zrotation
												End Site
												{
													OFFSET 2.326485 -0.032578 0.188548
												}
											}
										}
									}
								}
								JOINT mixamorig:LeftHandMiddle1
								{
									OFFSET 7.394897 0.286369 0.654762
									CHANNELS 3 Xrotation Yrotation Zrotation
									JOINT mixamorig:LeftHandMiddle2
									{
										OFFSET 3.376106 0.152466 -0.003692
										CHANNELS 3 Xrotation Yrotation Zrotation
										JOINT mixamorig:LeftHandMiddle3
										{
											OFFSET 3.185104 -0.185410 -0.047914
											CHANNELS 3 Xrotation Yrotation Zrotation
											JOINT mixamorig:LeftHandMiddle4
											{
												OFFSET 2.742905 0.223846 0.010354
												CHANNELS 3 Xrotation Yrotation Zrotation
												End Site
												{
													OFFSET 2.742889 0.224251 0.006757
												}
											}
										}
									}
								}
								JOINT mixamorig:LeftHandRing1
								{
									OFFSET 7.508747 0.282753 -1.072900
									CHANNELS 3 Xrotation Yrotation Zrotation
									JOINT mixamorig:LeftHandRing2
									{
										OFFSET 2.821857 0.317802 -0.177266
										CHANNELS 3 Xrotation Yrotation Zrotation
										JOINT mixamorig:LeftHandRing3
										{
											OFFSET 2.672325 0.088310 -0.196165
											CHANNELS 3 Xrotation Yrotation Zrotation
											JOINT mixamorig:LeftHandRing4
											{
												OFFSET 2.272652 -0.053627 -0.183955
												CHANNELS 3 Xrotation Yrotation Zrotation
												End Site
												{
													OFFSET 2.272919 -0.054016 -0.180438
												}
											}
										}
									}
								}
								JOINT mixamorig:LeftHandPinky1
								{
									OFFSET 7.285820 0.522377 -2.660948
									CHANNELS 3 Xrotation Yrotation Zrotation
									JOINT mixamorig:LeftHandPinky2
									{
										OFFSET 2.466278 0.082008 -0.249570
										CHANNELS 3 Xrotation Yrotation Zrotation
										JOINT mixamorig:LeftHandPinky3
										{
											OFFSET 1.940475 0.021858 -0.202004
											CHANNELS 3 Xrotation Yrotation Zrotation
											JOINT mixamorig:LeftHandPinky4
											{
												OFFSET 1.645287 0.153595 -0.153405
												CHANNELS 3 Xrotation Yrotation Zrotation
												End Site
												{
													OFFSET 1.645088 0.153801 -0.155289
												}
											}
										}
									}
								}
							}
						}
					}
				}
				JOINT mixamorig:RightShoulder
				{
					OFFSET -3.414604 7.343132 -0.036860
					CHANNELS 3 Xrotation Yrotation Zrotation
					JOINT mixamorig:RightArm
					{
						OFFSET -6.829551 -2.246986 0.022068
						CHANNELS 3 Xrotation Yrotation Zrotation
						JOINT mixamorig:RightForeArm
						{
							OFFSET -24.198494 -0.424141 0.158696
							CHANNELS 3 Xrotation Yrotation Zrotation
							JOINT mixamorig:RightHand
							{
								OFFSET -21.584698 -0.002243 0.686977
								CHANNELS 3 Xrotation Yrotation Zrotation
								JOINT mixamorig:RightHandThumb1
								{
									OFFSET -2.242882 -1.296806 1.978855
									CHANNELS 3 Xrotation Yrotation Zrotation
									JOINT mixamorig:RightHandThumb2
									{
										OFFSET -1.794239 -1.037361 1.583064
										CHANNELS 3 Xrotation Yrotation Zrotation
										JOINT mixamorig:RightHandThumb3
										{
											OFFSET -2.504150 -0.962166 1.471556
											CHANNELS 3 Xrotation Yrotation Zrotation
											JOINT mixamorig:RightHandThumb4
											{
												OFFSET -2.346046 -0.743172 0.992235
												CHANNELS 3 Xrotation Yrotation Zrotation
												End Site
												{
													OFFSET -2.157112 -0.792709 1.326359
												}
											}
										}
									}
								}
								JOINT mixamorig:RightHandIndex1
								{
									OFFSET -7.174488 -0.001839 2.366265
									CHANNELS 3 Xrotation Yrotation Zrotation
									JOINT mixamorig:RightHandIndex2
									{
										OFFSET -2.935219 -0.016853 0.287245
										CHANNELS 3 Xrotation Yrotation Zrotation
										JOINT mixamorig:RightHandIndex3
										{
											OFFSET -2.786827 -0.129890 0.255971
											CHANNELS 3 Xrotation Yrotation Zrotation
											JOINT mixamorig:RightHandIndex4
											{
												OFFSET -2.343559 0.168816 0.256164
												CHANNELS 3 Xrotation Yrotation Zrotation
												End Site
												{
													OFFSET -2.344208 0.169510 0.249690
												}
											}
										}
									}
								}
								JOINT mixamorig:RightHandMiddle1
								{
									OFFSET -7.274693 0.327965 0.656181
									CHANNELS 3 Xrotation Yrotation Zrotation
									JOINT mixamorig:RightHandMiddle2
									{
										OFFSET -3.309677 0.091591 0.032863
										CHANNELS 3 Xrotation Yrotation Zrotation
										JOINT mixamorig:RightHandMiddle3
										{
											OFFSET -3.186844 -0.122513 0.000971
											CHANNELS 3 Xrotation Yrotation Zrotation
											JOINT mixamorig:RightHandMiddle4
											{
												OFFSET -2.671951 -0.322540 -0.031001
												CHANNELS 3 Xrotation Yrotation Zrotation
												End Site
												{
													OFFSET -2.671928 -0.323486 -0.021820
												}
											}
										}
									}
								}
								JOINT mixamorig:RightHandRing1
								{
									OFFSET -7.453640 0.430428 -1.170334
									CHANNELS 3 Xrotation Yrotation Zrotation
									JOINT mixamorig:RightHandRing2
									{
										OFFSET -2.808174 0.165817 -0.117934
										CHANNELS 3 Xrotation Yrotation Zrotation
										JOINT mixamorig:RightHandRing3
										{
											OFFSET -2.730080 0.127754 -0.119542
											CHANNELS 3 Xrotation Yrotation Zrotation
											JOINT mixamorig:RightHandRing4
											{
												OFFSET -2.349426 0.078133 -0.107466
												CHANNELS 3 Xrotation Yrotation Zrotation
												End Site
												{
													OFFSET -2.349503 0.077988 -0.106043
												}
											}
										}
									}
								}
								JOINT mixamorig:RightHandPinky1
								{
									OFFSET -7.364456 0.463486 -2.604800
									CHANNELS 3 Xrotation Yrotation Zrotation
									JOINT mixamorig:RightHandPinky2
									{
										OFFSET -2.430134 0.174614 -0.251330
										CHANNELS 3 Xrotation Yrotation Zrotation
										JOINT mixamorig:RightHandPinky3
										{
											OFFSET -1.953583 0.007492 -0.220999
											CHANNELS 3 Xrotation Yrotation Zrotation
											JOINT mixamorig:RightHandPinky4
											{
												OFFSET -1.582039 0.276558 -0.139972
												CHANNELS 3 Xrotation Yrotation Zrotation
												End Site
												{
													OFFSET -1.581284 0.277252 -0.147002
												}
											}
										}
									}
								}
							}
						}
					}
				}
			}
		}
	}
	JOINT mixamorig:LeftUpLeg
	{
		OFFSET 6.620181 -8.816864 -0.447179
		CHANNELS 3 Xrotation Yrotation Zrotation
		JOINT mixamorig:LeftLeg
		{
			OFFSET 2.748989 -36.076775 0.650871
			CHANNELS 3 Xrotation Yrotation Zrotation
			JOINT mixamorig:LeftFoot
			{
				OFFSET 1.089303 -46.239017 1.019056
				CHANNELS 3 Xrotation Yrotation Zrotation
				JOINT mixamorig:LeftToeBase
				{
					OFFSET -0.371088 -10.380511 12.650617
					CHANNELS 3 Xrotation Yrotation Zrotation
					JOINT mixamorig:LeftToe_End
					{
						OFFSET -0.094684 -0.116785 6.663326
						CHANNELS 3 Xrotation Yrotation Zrotation
						End Site
						{
							OFFSET -0.094684 -0.116785 6.663326
						}
					}
				}
			}
		}
	}
	JOINT mixamorig:RightUpLeg
	{
		OFFSET -6.620174 -8.816818 -0.447182
		CHANNELS 3 Xrotation Yrotation Zrotation
		JOINT mixamorig:RightLeg
		{
			OFFSET -2.748991 -36.076790 0.753614
			CHANNELS 3 Xrotation Yrotation Zrotation
			JOINT mixamorig:RightFoot
			{
				OFFSET -1.089311 -46.239029 0.372114
				CHANNELS 3 Xrotation Yrotation Zrotation
				JOINT mixamorig:RightToeBase
				{
					OFFSET 0.371103 -10.380659 13.284531
					CHANNELS 3 Xrotation Yrotation Zrotation
					JOINT mixamorig:RightToe_End
					{
						OFFSET 0.094689 -0.116865 6.675873
						CHANNELS 3 Xrotation Yrotation Zrotation
						End Site
						{
							OFFSET 0.094687 -0.116865 6.675871
						}
					}
				}
			}
		}
	}
}
MOTION
Frames: 4
Frame Time: 0.016667
51.944771 90.464294 -9.320887 22.650874 -17.224868 1.939628 21.239909 10.629947 -13.510906 -1.941879 2.095761 -2.780759 -1.904376 1.958509 -2.905487 -9.089218 -1.403986 -1.442584 -18.860790 -8.623294 -1.617393 0.000000 -0.000000 -0.000000 0.042854 1.023885 4.360546 6.695795 32.540657 -45.407033 177.138607 -108.983154 176.972032 -5.721014 -2.599193 22.306629 5.278562 16.998990 6.394317 0.510132 -9.298251 -6.579037 -2.271397 -8.123796 -1.080929 0.000001 -0.000002 -0.000002 1.907995 -12.517399 16.256064 9.602618 8.781707 -55.397629 5.595948 6.952069 -37.351518 0.000000 0.000000 -0.000000 0.753056 -13.913920 -0.011849 1.831165 7.270922 -31.280757 1.798554 6.718156 -34.419154 0.000000 -0.000000 0.000001 -2.130392 -13.272964 -20.241679 -0.738824 3.264355 -12.714683 -0.459139 1.941827 -7.455992 0.000001 -0.000001 0.000003 -1.319853 -4.739251 -27.521499 0.132270 -4.135944 0.280160 -0.317479 0.287263 -3.147944 -0.000001 0.000001 -0.000002 -0.267383 -1.602384 -9.762598 -39.030146 29.754278 8.566788 -1.249643 51.874675 1.597466 -14.316570 24.876679 -3.821922 -5.210406 -13.709271 -16.111363 1.240664 9.795447 7.094017 -5.360228 16.358576 0.456749 0.000001 -0.000008 -0.000000 -0.292112 1.483324 -4.249264 5.200423 -5.992734 33.220968 2.275157 -3.110941 18.057427 -0.000000 -0.000001 0.000004 0.182935 4.049735 4.099383 0.920982 -4.441693 20.202760 0.315303 -1.038976 3.576934 0.000003 -0.000001 0.000001 -0.081682 5.129437 14.179746 -0.362383 -2.299310 10.577754 -0.071199 -0.381315 1.568405 0.000000 -0.000000 0.000000 -0.929234 6.159955 22.174402 0.455142 0.533400 -3.846971 -0.766744 -0.981707 7.391953 0.000000 0.000001 0.000002 -68.686049 1.465733 16.474771 48.640666 5.817718 -11.053330 -1.964410 24.560927 6.526206 -6.500230 0.000008 0.000002 -0.000000 0.000004 0.000001 5.753438 -6.745622 6.451161 26.589978 -7.712186 1.156873 18.797017 2.706173 26.884176 -4.994787 0.000002 0.000014 0.000002 -0.000000 0.000000 
52.629074 90.512512 -10.369607 23.214882 -18.068758 2.983013 20.056562 11.718880 -13.994627 -1.658851 2.223850 -2.994124 -1.614124 2.091557 -3.113227 -9.042443 -1.484112 -1.424387 -18.282728 -9.024996 -1.540624 -0.000000 0.000000 0.000000 -0.001413 1.380081 4.395977 8.903701 32.522998 -47.539589 177.232276 -109.574853 177.060237 -5.805873 -2.422751 21.986625 5.459813 17.071298 6.170124 0.504831 -9.236561 -6.581029 -2.329883 -8.294733 -1.077251 0.000003 -0.000001 -0.000000 2.100018 -13.010885 16.607185 9.574651 8.774559 -55.277667 5.638094 6.978782 -37.557933 0.000003 0.000000 -0.000000 0.814102 -14.343310 0.166051 1.817568 7.248274 -31.162776 1.807717 6.733425 -34.498452 0.000000 -0.000000 0.000001 -2.200040 -13.592641 -20.258882 -0.735789 3.241590 -12.616417 -0.456090 1.927091 -7.391143 -0.000002 -0.000001 0.000001 -1.421099 -4.917042 -27.655892 0.139778 -4.151540 0.350233 -0.299195 0.245999 -2.969126 0.000001 0.000001 0.000001 -0.376615 -2.056584 -10.404674 -40.120251 32.151726 10.021147 -1.328026 53.538680 1.659320 -14.213928 27.080546 -3.240148 -3.258949 -15.895225 -14.839933 1.251906 9.842382 6.941699 -5.438190 16.655584 0.496377 -0.000002 -0.000005 0.000001 -0.103593 0.530015 -1.068336 4.568051 -5.579804 30.027660 1.831769 -2.580851 15.118134 0.000000 -0.000001 0.000001 0.247749 3.157100 6.341096 0.766678 -4.051067 18.225923 0.331290 -0.598114 1.505238 0.000000 -0.000000 0.000004 0.009980 4.390945 15.401344 -0.348827 -2.115115 9.723732 0.043976 -0.204771 0.725312 -0.000001 -0.000001 -0.000003 -0.831491 5.724607 22.637156 0.455138 0.533380 -3.846996 -0.780641 -1.013273 7.535553 -0.000001 -0.000003 0.000003 -68.655818 1.432119 15.795659 46.929834 5.534922 -11.124570 -1.014048 26.228881 6.883538 -6.514353 -0.000000 0.000003 0.000000 0.000001 0.000000 8.435065 -6.692852 7.401715 22.093266 -5.482361 1.555098 21.878788 3.676257 27.426404 -5.458787 -0.000008 0.000011 0.000003 -0.000000 -0.000003 
53.118782 90.552849 -11.626933 23.675813 -18.856170 4.036101 19.051045 12.671431 -14.428559 -1.374495 2.334601 -3.224556 -1.322191 2.206613 -3.336890 -8.969788 -1.561223 -1.400051 -17.752852 -9.396264 -1.477402 -0.000000 0.000000 0.000001 -0.058644 1.814986 4.482519 11.038667 32.347848 -49.672561 177.310550 -110.097581 177.133716 -5.667913 -2.309741 21.558483 5.668788 17.186095 5.937365 0.489247 -9.257555 -6.583587 -2.429438 -8.581076 -1.065510 0.000001 0.000001 0.000001 2.208036 -13.222932 17.022689 9.576468 8.775033 -55.285426 5.667415 6.997240 -37.701299 -0.000000 -0.000000 0.000000 0.875488 -14.560987 0.442861 1.814452 7.243050 -31.135646 1.814195 6.744228 -34.554603 0.000002 0.000000 0.000001 -2.219136 -13.806170 -20.143411 -0.734453 3.231688 -12.573666 -0.453669 1.915407 -7.339649 -0.000001 -0.000001 0.000002 -1.493122 -5.072506 -27.642426 0.139779 -4.151545 0.350220 -0.285074 0.214342 -2.831681 0.000002 0.000002 -0.000002 -0.489806 -2.508102 -10.999921 -41.453511 34.296111 11.818972 -1.428838 55.502213 1.740836 -13.598493 28.760824 -2.785839 -1.352867 -17.448997 -13.386673 1.250879 9.852344 6.906382 -5.386970 16.529237 0.525058 -0.000002 -0.000001 0.000001 0.049201 -0.074742 0.930200 4.152233 -5.279507 27.861855 1.536993 -2.195299 13.056812 0.000003 -0.000000 -0.000000 0.317606 2.575730 7.762639 0.669187 -3.781519 16.877823 0.340962 -0.293628 0.058824 0.000001 0.000000 0.000004 0.088063 3.893833 16.201378 -0.338017 -1.989701 9.141744 0.118387 -0.084647 0.144259 -0.000001 0.000006 -0.000000 -0.760374 5.419186 22.980655 0.455144 0.533390 -3.846950 -0.791780 -1.038722 7.651084 0.000001 -0.000001 -0.000001 -68.445141 1.333472 15.177705 44.932621 5.239005 -11.094148 0.294480 27.672301 6.999562 -6.557892 0.000023 0.000004 -0.000000 -0.000002 -0.000000 11.060751 -6.622724 8.430941 17.345441 -3.417399 1.890135 25.117512 4.326840 27.203841 -6.432058 -0.000004 0.000001 0.000002 -0.000002 0.000000 
53.886234 90.502769 -12.836102 24.013586 -19.585953 5.058994 18.261930 13.448952 -14.771384 -1.124848 2.426886 -3.472883 -1.064413 2.301405 -3.578661 -8.855226 -1.633924 -1.374466 -17.291413 -9.734387 -1.430035 0.000002 0.000000 0.000001 -0.125646 2.313329 4.569606 13.142621 32.059026 -51.730500 177.370437 -110.515760 177.189751 -5.280281 -2.190973 21.121774 5.890909 17.332792 5.710947 0.461094 -9.354102 -6.594515 -2.557072 -8.946463 -1.046988 0.000002 0.000001 -0.000001 2.225868 -13.177495 17.410726 9.597223 8.780344 -55.374492 5.675455 7.002283 -37.740565 -0.000000 0.000000 -0.000001 0.923057 -14.572921 0.740950 1.818664 7.250074 -31.172256 1.815023 6.745594 -34.561737 -0.000001 -0.000000 0.000001 -2.196680 -13.895029 -19.955422 -0.734510 3.232075 -12.575303 -0.451666 1.905761 -7.297155 -0.000001 0.000000 -0.000000 -1.528778 -5.178974 -27.531053 0.139797 -4.151559 0.350228 -0.276515 0.195220 -2.748514 0.000002 -0.000000 0.000005 -0.594279 -2.900488 -11.537412 -42.960862 36.200204 13.860597 -1.557200 57.748478 1.847347 -12.386279 29.794194 -2.563409 0.314796 -18.278944 -11.876626 1.238213 9.826690 6.983737 -5.218037 16.018108 0.542976 -0.000000 -0.000003 -0.000001 0.098054 -0.270658 1.495799 3.977581 -5.146060 26.934364 1.394673 -1.998289 12.025483 -0.000000 0.000003 -0.000005 0.346633 2.367966 8.181639 0.628591 -3.663001 16.288866 0.343436 -0.145410 -0.650002 0.000002 0.000005 -0.000002 0.125636 3.690819 16.466162 -0.332896 -1.935000 8.887732 0.152306 -0.028453 -0.129512 -0.000001 0.000001 -0.000002 -0.726712 5.278858 23.141420 0.455141 0.533396 -3.846976 -0.799178 -1.055701 7.728310 -0.000000 -0.000003 -0.000002 -68.336951 1.256342 14.312693 43.312033 5.041665 -10.945709 1.413716 28.777769 7.147784 -6.653176 0.000004 0.000002 -0.000000 -0.000001 -0.000000 13.408119 -6.404564 9.126721 12.838771 -1.762495 2.244699 28.193108 4.701678 26.471184 -8.232030 0.000005 0.000024 0.000001 0.000002 -0.000002 
